<svg xmlns="http://www.w3.org/2000/svg" version="1.1" xmlns:xlink="http://www.w3.org/1999/xlink" xmlns:svgjs="http://svgjs.com/svgjs" width="1440" height="560" preserveAspectRatio="none" viewBox="0 0 1440 560"><g mask="url(&quot;#SvgjsMask1015&quot;)" fill="none"><path d="M910.219282796693 393.22474762075683L888.0646284572607 235.58619092407218 730.4260717605761 257.7408452635045 752.5807261000084 415.37940196018917z" fill="rgba(28, 83, 142, 0.4)" class="triangle-float2"></path><path d="M583.6271992104214 153.8114998242325L721.2745263004658 60.967205381402195 628.4302318576355-76.68012170864222 490.7829047675911 16.1641727341881z" fill="rgba(28, 83, 142, 0.4)" class="triangle-float2"></path><path d="M339.98261391143336 283.50470541059786L219.94209445665211 287.58207581603415 274.01841878028887 377.58019286879494z" fill="rgba(28, 83, 142, 0.4)" class="triangle-float1"></path><path d="M40.92758295807177 444.73015119217865L127.52071197565442 517.3904138133189 200.1809745967946 430.79728479573623 113.58784557921197 358.137022174596z" fill="rgba(28, 83, 142, 0.4)" class="triangle-float3"></path><path d="M1319.674,138.93C1340.85,139.129,1359.903,127.87,1371.491,110.145C1384.44,90.337,1392.19,65.658,1381.316,44.639C1369.707,22.201,1344.932,9.498,1319.674,9.992C1295.224,10.471,1273.109,25.15,1262.074,46.974C1251.973,66.95,1257.632,90.217,1269.515,109.188C1280.574,126.843,1298.842,138.734,1319.674,138.93" fill="rgba(28, 83, 142, 0.4)" class="triangle-float1"></path><path d="M519.216,365.745C549.293,364.57,573.347,344.407,589.183,318.809C606.105,291.456,618.574,258.175,603.263,229.889C587.408,200.598,552.519,189.015,519.216,189.55C486.936,190.068,456.184,204.747,439.718,232.516C422.924,260.837,422.219,296.399,439.091,324.674C455.574,352.298,487.073,367.001,519.216,365.745" fill="rgba(28, 83, 142, 0.4)" class="triangle-float1"></path><path d="M128.4977937137367 67.05889502829399L44.277580543835654-6.152619336356551 55.28627934908617 151.27910819819505z" fill="rgba(28, 83, 142, 0.4)" class="triangle-float1"></path><path d="M241.25673761445933 434.4644366017223L106.29755508817055 455.7080455854813 179.82487151616556 549.8187189851062z" fill="rgba(28, 83, 142, 0.4)" class="triangle-float2"></path><path d="M1337.6293810981042 336.6222819909431L1308.700545607315 286.5160691170947 1248.0056440419369 354.9624287902025z" fill="rgba(28, 83, 142, 0.4)" class="triangle-float1"></path><path d="M601.836,423.992C645.136,423.226,689.864,409.793,711.457,372.253C733.002,334.797,721.29,289.865,700.901,251.768C678.968,210.784,648.32,167.501,601.836,167.42C555.269,167.339,524.864,210.757,502.17,251.42C480.238,290.718,462.78,337.282,485.287,376.253C507.791,415.218,556.846,424.788,601.836,423.992" fill="rgba(28, 83, 142, 0.4)" class="triangle-float1"></path><path d="M770.3730814038026 557.5928382121986L713.0680541364493 469.35083447276173 624.8260503970124 526.6558617401151 682.1310776643658 614.8978654795519z" fill="rgba(28, 83, 142, 0.4)" class="triangle-float1"></path><path d="M735.523,160.346C770.74,162.069,809.488,154.721,827.421,124.363C845.568,93.641,832.897,56.285,815.341,25.222C797.416,-6.494,771.921,-36.68,735.523,-38.238C696.881,-39.892,660.288,-16.717,642.923,17.842C626.982,49.566,638.642,86.3,657.987,116.071C675.368,142.819,703.662,158.787,735.523,160.346" fill="rgba(28, 83, 142, 0.4)" class="triangle-float3"></path></g><defs><mask id="SvgjsMask1015"><rect width="1440" height="560" fill="#ffffff"></rect></mask><style>
            @keyframes float1 {
                0%{transform: translate(0, 0)}
                50%{transform: translate(-10px, 0)}
                100%{transform: translate(0, 0)}
            }

            .triangle-float1 {
                animation: float1 5s infinite;
            }

            @keyframes float2 {
                0%{transform: translate(0, 0)}
                50%{transform: translate(-5px, -5px)}
                100%{transform: translate(0, 0)}
            }

            .triangle-float2 {
                animation: float2 4s infinite;
            }

            @keyframes float3 {
                0%{transform: translate(0, 0)}
                50%{transform: translate(0, -10px)}
                100%{transform: translate(0, 0)}
            }

            .triangle-float3 {
                animation: float3 6s infinite;
            }
        </style></defs></svg>